<?xml version="1.0" encoding="UTF-8"?><svg xmlns="http://www.w3.org/2000/svg" width="493.51" height="762.71" viewBox="0 0 493.51 762.71"><defs><style>.c{fill:#fff;}.d{fill:#1b2a4c;}</style></defs><g id="a"><g><path class="c" d="M143.41,382.85c-37.22,0-67.5-30.28-67.5-67.5s30.28-67.5,67.5-67.5h191.17c37.22,0,67.5,30.28,67.5,67.5s-30.28,67.5-67.5,67.5H143.41Z"/><path class="c" d="M143.41,354.85c-21.78,0-39.5-17.72-39.5-39.5s17.72-39.5,39.5-39.5h191.17c21.78,0,39.5,17.72,39.5,39.5s-17.72,39.5-39.5,39.5H143.41Z"/><path class="c" d="M67.5,762.71c-37.22,0-67.5-30.28-67.5-67.5s30.28-67.5,67.5-67.5H410.49c37.22,0,67.5,30.28,67.5,67.5s-30.28,67.5-67.5,67.5H67.5Z"/><path class="c" d="M67.5,734.71c-21.78,0-39.5-17.72-39.5-39.5s17.72-39.5,39.5-39.5H410.49c21.78,0,39.5,17.72,39.5,39.5s-17.72,39.5-39.5,39.5H67.5Z"/><path class="c" d="M12.98,719.56l50.9-102.35c.78-1.64,11.35-24.24,23.57-64.19,12.51-40.91,29.36-108.51,38.57-198.26l6.54-63.75h211.03l6.54,63.75c5.08,49.54,15.9,124.14,38.57,198.26,12.34,40.34,22.99,62.96,23.6,64.25l50.5,102.2-114.2,.08H12.98Z"/><path class="c" d="M58.17,691.56l30.87-62.07c.42-.87,11.86-24.73,25.18-68.28,12.88-42.1,30.21-111.6,39.65-203.59l3.96-38.61h160.48l3.96,38.61c5.21,50.78,16.32,127.31,39.65,203.59,13.52,44.2,25.09,68.1,25.21,68.34l30.62,61.96-69.17,.05H58.17Z"/><path class="c" d="M308.12,312.7c-34,0-65.96-13.24-90.01-37.28-31.15-31.15-43.86-75.45-34.01-118.51l4.87-21.29-8.26-2.81,95.56-95.56C300.29,13.23,332.26,0,366.28,0s65.99,13.23,90.01,37.25c49.63,49.63,49.63,130.38,0,180.01l-58.16,58.16c-24.04,24.04-56.01,37.28-90,37.28Z"/><path class="c" d="M308.12,284.7c-26.52,0-51.45-10.33-70.21-29.08-24.29-24.29-34.2-58.86-26.51-92.47l3.66-16,16.32-1.74c2.52-.27,5.08-.41,7.62-.41,15.31,0,29.93,4.81,42.28,13.91l11.72,8.64-2.79,14.29c-1.18,6.03,.69,12.2,4.99,16.5,3.5,3.5,7.97,5.35,12.93,5.35s9.43-1.85,12.93-5.35l58.16-58.16c7.13-7.13,7.13-18.73,0-25.86-3.44-3.44-8.03-5.34-12.93-5.34s-9.49,1.9-12.93,5.34l-44.45,44.45-16.01-12.36c-7.78-6-16.37-10.62-25.53-13.74l-35.01-11.89,63.73-63.73c18.73-18.73,43.66-29.04,70.21-29.04s51.48,10.31,70.21,29.04c38.71,38.71,38.71,101.7,0,140.41l-58.16,58.16c-18.75,18.75-43.69,29.08-70.21,29.08Z"/><path class="c" d="M239,364.87c-81.84,0-148.43-66.59-148.43-148.43S157.15,68.01,239,68.01c70.7,0,131.94,50.33,145.62,119.66l5.27,26.7-3.25,3.25,40.75-3.76-70.21,92.31c-28.37,37.3-71.44,58.69-118.18,58.69Z"/><path class="c" d="M239,336.87c-66.41,0-120.43-54.02-120.43-120.43s54.02-120.43,120.43-120.43c57.36,0,107.05,40.83,118.15,97.08l2.38,12.04-15.84,15.84c-9.49,9.5-22.12,14.73-35.56,14.73-4.27,0-8.53-.54-12.66-1.61l-15.96-4.14-1.21-16.44c-1.5-20.47-18.77-36.5-39.3-36.5-21.74,0-12.95,12.99-12.95,34.73s6.39,27.62,28.14,27.62c7.66,0-.08,14.29,6.33,10.09l10.24-6.71,11.29,4.75c8.24,3.47,17.02,5.22,26.09,5.22,2.04,0,4.17-.1,6.34-.3l52.08-4.81-31.66,41.63c-23.03,30.28-57.98,47.64-95.89,47.64Z"/></g></g><g id="b"><path class="d" d="M334.58,331.85H143.41c-9.11,0-16.5-7.39-16.5-16.5s7.39-16.5,16.5-16.5h191.17c9.11,0,16.5,7.39,16.5,16.5s-7.39,16.5-16.5,16.5Z"/><path class="d" d="M410.49,711.71H67.5c-9.11,0-16.5-7.39-16.5-16.5s7.39-16.5,16.5-16.5H410.49c9.11,0,16.5,7.39,16.5,16.5s-7.39,16.5-16.5,16.5Z"/><path class="d" d="M348.57,668.56H95.3l14.37-28.91c.11-.22,12.27-25.03,26.54-71.72,13.18-43.08,30.9-114.13,40.53-207.97l1.84-17.96h118.96l1.84,17.96c5.32,51.8,16.66,129.92,40.53,207.97,14.28,46.68,26.43,71.5,26.56,71.74l14.26,28.86-32.18,.02Zm-190.79-40h160.58c-15.74-40.84-42.58-124.2-56.79-246.55h-46.99c-14.21,122.36-41.06,205.72-56.79,246.55Z"/><path class="d" d="M420.23,73.31c-29.74-29.74-78.14-29.74-107.89,0l-37.59,37.59c11.73,3.98,22.57,9.89,32.19,17.31l30.15-30.15c16.1-16.1,42.29-16.1,58.39,0,16.1,16.1,16.1,42.29,0,58.39l-58.16,58.16c-7.8,7.8-18.17,12.09-29.19,12.09s-21.4-4.29-29.2-12.09c-10.08-10.08-13.85-24.13-11.3-37.17-8.03-5.91-17.92-9.42-28.63-9.42-1.75,0-3.47,.09-5.17,.28-5.67,24.76,1.11,51.82,20.36,71.07h0c14.41,14.41,33.57,22.34,53.94,22.34s39.53-7.94,53.94-22.34l58.16-58.16c29.74-29.74,29.74-78.14,0-107.89Z"/><path class="d" d="M308.12,275.7c-12.22,0-24.07-2.42-35.01-7.02-9.81,6.43-21.53,10.19-34.12,10.19-34.42,0-62.43-28.01-62.43-62.43s28.01-62.43,62.43-62.43,59.87,25.54,62.24,57.82c2.22,.58,4.53,.88,6.89,.88,7.29,0,14.14-2.84,19.29-7.99l7.16-7.16c-8.82-44.71-48.32-78.54-95.58-78.54-53.72,0-97.43,43.71-97.43,97.43s43.71,97.43,97.43,97.43c31.62,0,59.77-15.15,77.58-38.57-2.79,.26-5.61,.4-8.46,.4Z"/></g></svg>